<svg id="visual" viewBox="0 0 900 600" width="900" height="600" xmlns="http://www.w3.org/2000/svg" xmlns:xlink="http://www.w3.org/1999/xlink" version="1.1"><rect x="0" y="0" width="900" height="600" fill="#140021"></rect><path d="M0 347L129 347L129 343L257 343L257 253L386 253L386 319L514 319L514 249L643 249L643 358L771 358L771 274L900 274L900 318L900 601L900 601L771 601L771 601L643 601L643 601L514 601L514 601L386 601L386 601L257 601L257 601L129 601L129 601L0 601Z" fill="#9900ff"></path><path d="M0 384L129 384L129 352L257 352L257 421L386 421L386 386L514 386L514 411L643 411L643 361L771 361L771 443L900 443L900 400L900 601L900 601L771 601L771 601L643 601L643 601L514 601L514 601L386 601L386 601L257 601L257 601L129 601L129 601L0 601Z" fill="#7700c6"></path><path d="M0 488L129 488L129 463L257 463L257 543L386 543L386 471L514 471L514 491L643 491L643 523L771 523L771 443L900 443L900 538L900 601L900 601L771 601L771 601L643 601L643 601L514 601L514 601L386 601L386 601L257 601L257 601L129 601L129 601L0 601Z" fill="#560090"></path></svg>